<?xml version="1.0" standalone="no"?>
<!DOCTYPE svg PUBLIC "-//W3C//DTD SVG 20010904//EN"
 "http://www.w3.org/TR/2001/REC-SVG-20010904/DTD/svg10.dtd">
<svg version="1.0" xmlns="http://www.w3.org/2000/svg"
 width="700.000000pt" height="700.000000pt" viewBox="0 0 700.000000 700.000000"
 preserveAspectRatio="xMidYMid meet">
<metadata>
Created by potrace 1.14, written by Peter Selinger 2001-2017
</metadata>
<g transform="translate(0.000000,700.000000) scale(0.100000,-0.100000)"
fill="#000000" stroke="none">
<path d="M248 6986 c-98 -35 -166 -94 -216 -189 l-27 -52 0 -3245 0 -3245 34
-63 c39 -72 88 -120 163 -159 l53 -28 3245 0 3245 0 63 34 c75 41 125 94 161
170 l26 56 0 3235 0 3235 -26 56 c-36 76 -86 129 -161 170 l-63 34 -3230 2
c-2641 2 -3237 0 -3267 -11z m4690 -1329 c137 -25 300 -81 431 -148 405 -205
694 -588 793 -1048 20 -90 21 -135 25 -703 4 -598 4 -607 -17 -647 -38 -75
-143 -104 -210 -58 -18 12 -43 35 -54 50 -21 28 -21 40 -27 640 -3 337 -8 621
-12 632 -3 11 -15 57 -26 102 -80 319 -319 613 -626 766 -49 25 -127 57 -173
71 -171 54 -210 56 -942 56 -638 0 -677 1 -710 19 -110 58 -107 221 4 272 39
18 72 19 746 16 612 -3 717 -5 798 -20z m-2053 -26 c17 -9 40 -36 53 -61 l22
-44 0 -671 c0 -555 3 -685 15 -757 74 -420 369 -762 775 -896 152 -51 187 -54
675 -58 253 -3 470 -7 482 -9 13 -3 60 -38 105 -77 194 -167 392 -259 623
-287 50 -6 230 -11 400 -11 351 0 360 -2 402 -76 41 -71 21 -156 -46 -201 -34
-23 -36 -23 -395 -23 -269 0 -384 4 -451 15 -247 40 -473 141 -671 299 l-80
65 -450 4 c-493 4 -498 5 -701 72 -218 73 -385 177 -559 350 -216 215 -337
435 -405 740 -22 97 -23 119 -26 800 -3 385 -2 714 1 730 13 69 103 131 171
119 17 -3 44 -14 60 -23z m-615 -279 c38 -20 80 -89 80 -132 -1 -51 -36 -107
-87 -136 -290 -165 -456 -287 -644 -474 -74 -74 -166 -173 -203 -220 -303
-384 -490 -831 -551 -1321 -12 -99 -15 -250 -15 -760 l0 -638 26 -20 c26 -20
37 -21 438 -21 226 0 416 4 423 8 28 18 33 70 33 370 0 280 2 314 21 382 51
186 178 339 354 425 133 66 162 70 530 70 312 0 332 -1 363 -20 18 -11 43 -36
55 -55 22 -35 22 -40 25 -587 l3 -552 26 -21 c25 -19 38 -20 474 -20 l448 0 3
424 c3 413 4 425 24 453 73 98 204 97 262 -3 l22 -39 -2 -485 c-3 -480 -3
-485 -25 -527 -29 -54 -86 -100 -147 -118 -75 -23 -1015 -22 -1101 1 -115 29
-203 103 -258 214 l-32 65 -3 483 -3 484 -227 -4 c-226 -3 -227 -3 -289 -32
-92 -42 -172 -132 -206 -230 -6 -18 -13 -177 -16 -376 l-6 -346 -33 -66 c-40
-81 -110 -148 -190 -180 -56 -23 -64 -23 -500 -26 -378 -3 -452 -1 -505 13
-119 31 -208 103 -261 215 l-31 65 -3 630 c-2 407 1 676 8 760 56 645 319
1249 752 1721 225 247 493 455 782 607 79 42 131 47 186 19z m2661 -756 c20
-14 250 -264 272 -296 27 -39 22 -94 -12 -132 -25 -28 -36 -33 -77 -33 -47 0
-47 0 -148 108 l-102 108 -102 -105 c-112 -116 -143 -132 -200 -102 -43 22
-62 53 -62 100 0 38 7 47 162 202 161 163 180 176 233 165 11 -2 27 -9 36 -15z
m1023 -2405 c50 -28 71 -66 71 -129 0 -53 -4 -64 -58 -144 -233 -346 -614
-564 -1037 -593 -87 -6 -99 -5 -140 17 -33 17 -51 35 -67 68 -22 42 -23 55
-23 280 0 264 7 295 71 341 45 32 125 33 165 3 65 -48 69 -61 72 -235 l3 -159
27 6 c15 3 59 14 97 24 223 59 444 221 579 424 32 47 68 91 79 98 56 29 108
29 161 -1z"/>
</g>
</svg>
